  0
SECTION
  2
HEADER
  9
$ANGBASE
  50
0.0
  9
$ANGDIR
  70
1
  9
$MEASUREMENT
  70
1
  0
ENDSEC
  0
SECTION
  2
TABLES
  0
TABLE
  2
LTYPE
  70
4
  0
LTYPE
  5
40F
  2
CONTINUOUS
  70
0
  3
Solid line
  72
65
  73
0
  40
0.0
  0
LTYPE
  5
410
  2
DASHDOT
 70
0
  3
Dash Dot ____ _ ____ _
 72
65
 73
4
 40
2.0
 49
1.25
 49
-0.25
 49
0.25
 49
-0.25
  0
LTYPE
  5
411
  2
DASHED
 70
0
  3
Dashed __ __ __ __ __
 72
65
 73
2
 40
0.75
 49
0.5
 49
-0.25
  0
LTYPE
  5
43B
  2
DOTTED
 70
0
  3
Dotted .  .  .  .
 72
65
 73
2
 40
0.2
 49
0.0
 49
-0.2
  0
ENDTAB
  0
TABLE
  2
STYLE
  70
4
  0
STYLE
  2
KICAD
  70
0
  40
0
  41
1
  42
1
  50
0
  71
0
  3
isocp.shx
  0
STYLE
  2
KICADB
  70
0
  40
0
  41
1
  42
1
  50
0
  71
0
  3
isocp.shx
  0
STYLE
  2
KICADI
  70
0
  40
0
  41
1
  42
1
  50
15
  71
0
  3
isocp.shx
  0
STYLE
  2
KICADBI
  70
0
  40
0
  41
1
  42
1
  50
15
  71
0
  3
isocp.shx
  0
ENDTAB
  0
TABLE
  2
LAYER
  70
1
  0
LAYER
  2
BLACK
  70
0
  62
7
  6
CONTINUOUS
  0
ENDTAB
  0
ENDSEC
  0
SECTION
  2
ENTITIES
0
LINE
8
BLACK
6
CONTINUOUS
10
186.9146089999999845
20
-51.002170999999997
11
186.9158999999999935
21
-51.0019439999999946
0
LINE
8
BLACK
6
CONTINUOUS
10
186.9158999999999935
20
-51.0019439999999946
11
186.9168640000000039
21
-51.0026189999999957
0
LINE
8
BLACK
6
CONTINUOUS
10
186.9168640000000039
20
-51.0026189999999957
11
186.9200510000000008
21
-51.0032519999999963
0
LINE
8
BLACK
6
CONTINUOUS
10
186.9200510000000008
20
-51.0032519999999963
11
186.9253889999999956
21
-51.008587999999996
0
LINE
8
BLACK
6
CONTINUOUS
10
186.9253889999999956
20
-51.008587999999996
11
186.9315749999999809
21
-51.0129189999999966
0
LINE
8
BLACK
6
CONTINUOUS
10
186.9315749999999809
20
-51.0129189999999966
11
186.9327519999999936
21
-51.0159479999999945
0
LINE
8
BLACK
6
CONTINUOUS
10
186.9327519999999936
20
-51.0159479999999945
11
186.9335839999999962
21
-51.0167789999999997
0
LINE
8
BLACK
6
CONTINUOUS
10
186.9335839999999962
20
-51.0167789999999997
11
186.9335839999999962
21
-51.0180859999999967
0
LINE
8
BLACK
6
CONTINUOUS
10
186.9335839999999962
20
-51.0180859999999967
11
186.9351099999999803
21
-51.0220099999999945
0
LINE
8
BLACK
6
CONTINUOUS
10
186.9351099999999803
20
-51.0220099999999945
11
193.1678110000000004
21
-86.3649839999999926
0
LINE
8
BLACK
6
CONTINUOUS
10
193.1678110000000004
20
-86.3649839999999926
11
193.1677629999999795
21
-86.3671760000000006
0
LINE
8
BLACK
6
CONTINUOUS
10
193.1677629999999795
20
-86.3671760000000006
11
193.1681909999999789
21
-86.3693260000000009
0
LINE
8
BLACK
6
CONTINUOUS
10
193.1681909999999789
20
-86.3693260000000009
11
193.1681909999999789
21
-128.9967900000000043
0
LINE
8
BLACK
6
CONTINUOUS
10
193.1681909999999789
20
-128.9967900000000043
11
193.1510289999999941
21
-129.4117509999999811
0
LINE
8
BLACK
6
CONTINUOUS
10
193.1510289999999941
20
-129.4117509999999811
11
193.0996580000000051
21
-129.8238780000000077
0
LINE
8
BLACK
6
CONTINUOUS
10
193.0996580000000051
20
-129.8238780000000077
11
193.0144289999999785
21
-130.2303560000000004
0
LINE
8
BLACK
6
CONTINUOUS
10
193.0144289999999785
20
-130.2303560000000004
11
192.8959250000000054
21
-130.628405999999984
0
LINE
8
BLACK
6
CONTINUOUS
10
192.8959250000000054
20
-130.628405999999984
11
192.7449550000000045
21
-131.015310999999997
0
LINE
8
BLACK
6
CONTINUOUS
10
192.7449550000000045
20
-131.015310999999997
11
192.5625499999999874
21
-131.3884280000000047
0
LINE
8
BLACK
6
CONTINUOUS
10
192.5625499999999874
20
-131.3884280000000047
11
192.3499559999999917
21
-131.7452069999999935
0
LINE
8
BLACK
6
CONTINUOUS
10
192.3499559999999917
20
-131.7452069999999935
11
192.1086249999999893
21
-132.0832120000000032
0
LINE
8
BLACK
6
CONTINUOUS
10
192.1086249999999893
20
-132.0832120000000032
11
191.8402069999999924
21
-132.4001329999999825
0
LINE
8
BLACK
6
CONTINUOUS
10
191.8402069999999924
20
-132.4001329999999825
11
191.5465339999999799
21
-132.693805999999995
0
LINE
8
BLACK
6
CONTINUOUS
10
191.5465339999999799
20
-132.693805999999995
11
191.2296130000000005
21
-132.9622249999999894
0
LINE
8
BLACK
6
CONTINUOUS
10
191.2296130000000005
20
-132.9622249999999894
11
190.8916079999999909
21
-133.2035549999999944
0
LINE
8
BLACK
6
CONTINUOUS
10
190.8916079999999909
20
-133.2035549999999944
11
190.534829000000002
21
-133.4161489999999901
0
LINE
8
BLACK
6
CONTINUOUS
10
190.534829000000002
20
-133.4161489999999901
11
190.1617119999999943
21
-133.5985540000000071
0
LINE
8
BLACK
6
CONTINUOUS
10
190.1617119999999943
20
-133.5985540000000071
11
189.7748069999999814
21
-133.7495250000000055
0
LINE
8
BLACK
6
CONTINUOUS
10
189.7748069999999814
20
-133.7495250000000055
11
189.3767569999999978
21
-133.868029000000007
0
LINE
8
BLACK
6
CONTINUOUS
10
189.3767569999999978
20
-133.868029000000007
11
188.970279000000005
21
-133.9532580000000053
0
LINE
8
BLACK
6
CONTINUOUS
10
188.970279000000005
20
-133.9532580000000053
11
188.5581519999999784
21
-134.0046289999999942
0
LINE
8
BLACK
6
CONTINUOUS
10
188.5581519999999784
20
-134.0046289999999942
11
188.1431910000000016
21
-134.0217910000000074
0
LINE
8
BLACK
6
CONTINUOUS
10
188.1431910000000016
20
-134.0217910000000074
11
188.1431910000000016
21
-134.0217899999999815
0
LINE
8
BLACK
6
CONTINUOUS
10
188.1431910000000016
20
-134.0217899999999815
11
98.2084579999999931
21
-134.0217910000000074
0
LINE
8
BLACK
6
CONTINUOUS
10
98.2084579999999931
20
-134.0217910000000074
11
97.7934989999999971
21
-134.0046250000000043
0
LINE
8
BLACK
6
CONTINUOUS
10
97.7934989999999971
20
-134.0046250000000043
11
97.3813749999999914
21
-133.953249999999997
0
LINE
8
BLACK
6
CONTINUOUS
10
97.3813749999999914
20
-133.953249999999997
11
96.9749020000000002
21
-133.8680190000000039
0
LINE
8
BLACK
6
CONTINUOUS
10
96.9749020000000002
20
-133.8680190000000039
11
96.5768549999999948
21
-133.7495119999999815
0
LINE
8
BLACK
6
CONTINUOUS
10
96.5768549999999948
20
-133.7495119999999815
11
96.1899530000000027
21
-133.5985389999999882
0
LINE
8
BLACK
6
CONTINUOUS
10
96.1899530000000027
20
-133.5985389999999882
11
95.8168409999999966
21
-133.4161330000000021
0
LINE
8
BLACK
6
CONTINUOUS
10
95.8168409999999966
20
-133.4161330000000021
11
95.4600650000000002
21
-133.2035379999999805
0
LINE
8
BLACK
6
CONTINUOUS
10
95.4600650000000002
20
-133.2035379999999805
11
95.1220639999999946
21
-132.9622070000000065
0
LINE
8
BLACK
6
CONTINUOUS
10
95.1220639999999946
20
-132.9622070000000065
11
94.805146999999991
21
-132.6937879999999836
0
LINE
8
BLACK
6
CONTINUOUS
10
94.805146999999991
20
-132.6937879999999836
11
94.5114769999999993
21
-132.400115999999997
0
LINE
8
BLACK
6
CONTINUOUS
10
94.5114769999999993
20
-132.400115999999997
11
94.2430619999999948
21
-132.0831949999999892
0
LINE
8
BLACK
6
CONTINUOUS
10
94.2430619999999948
20
-132.0831949999999892
11
94.001733999999999
21
-131.745192000000003
0
LINE
8
BLACK
6
CONTINUOUS
10
94.001733999999999
20
-131.745192000000003
11
93.7891429999999957
21
-131.3884139999999832
0
LINE
8
BLACK
6
CONTINUOUS
10
93.7891429999999957
20
-131.3884139999999832
11
93.6067400000000021
21
-131.0152999999999963
0
LINE
8
BLACK
6
CONTINUOUS
10
93.6067400000000021
20
-131.0152999999999963
11
93.4557719999999961
21
-130.6283970000000068
0
LINE
8
BLACK
6
CONTINUOUS
10
93.4557719999999961
20
-130.6283970000000068
11
93.337268999999992
21
-130.2303489999999897
0
LINE
8
BLACK
6
CONTINUOUS
10
93.337268999999992
20
-130.2303489999999897
11
93.2520409999999913
21
-129.8238739999999893
0
LINE
8
BLACK
6
CONTINUOUS
10
93.2520409999999913
20
-129.8238739999999893
11
93.2006709999999998
21
-129.4117499999999836
0
LINE
8
BLACK
6
CONTINUOUS
10
93.2006709999999998
20
-129.4117499999999836
11
93.1835090000000008
21
-128.9967910000000018
0
LINE
8
BLACK
6
CONTINUOUS
10
93.1835090000000008
20
-128.9967910000000018
11
93.1834580000000017
21
-128.9967910000000018
0
LINE
8
BLACK
6
CONTINUOUS
10
93.1834580000000017
20
-128.9967910000000018
11
93.1846379999999925
21
-128.993155999999999
0
LINE
8
BLACK
6
CONTINUOUS
10
93.1846379999999925
20
-128.993155999999999
11
93.1834580000000017
21
-128.9872359999999958
0
LINE
8
BLACK
6
CONTINUOUS
10
93.1834580000000017
20
-128.9872359999999958
11
93.1477009999999979
21
-56.0504119999999944
0
LINE
8
BLACK
6
CONTINUOUS
10
93.1477009999999979
20
-56.0504119999999944
11
93.1477089999999919
21
-56.0503709999999984
0
LINE
8
BLACK
6
CONTINUOUS
10
93.1477089999999919
20
-56.0503709999999984
11
93.1477009999999979
21
-56.0503459999999976
0
LINE
8
BLACK
6
CONTINUOUS
10
93.1477009999999979
20
-56.0503459999999976
11
93.1648639999999943
21
-55.6353849999999994
0
LINE
8
BLACK
6
CONTINUOUS
10
93.1648639999999943
20
-55.6353849999999994
11
93.216235999999995
21
-55.2232579999999942
0
LINE
8
BLACK
6
CONTINUOUS
10
93.216235999999995
20
-55.2232579999999942
11
93.3014649999999932
21
-54.8167809999999989
0
LINE
8
BLACK
6
CONTINUOUS
10
93.3014649999999932
20
-54.8167809999999989
11
93.4199699999999922
21
-54.4187310000000011
0
LINE
8
BLACK
6
CONTINUOUS
10
93.4199699999999922
20
-54.4187310000000011
11
93.5709409999999906
21
-54.0318259999999952
0
LINE
8
BLACK
6
CONTINUOUS
10
93.5709409999999906
20
-54.0318259999999952
11
93.7533459999999934
21
-53.6587099999999992
0
LINE
8
BLACK
6
CONTINUOUS
10
93.7533459999999934
20
-53.6587099999999992
11
93.9659399999999891
21
-53.3019309999999962
0
LINE
8
BLACK
6
CONTINUOUS
10
93.9659399999999891
20
-53.3019309999999962
11
94.2072709999999915
21
-52.9639269999999982
0
LINE
8
BLACK
6
CONTINUOUS
10
94.2072709999999915
20
-52.9639269999999982
11
94.4756890000000027
21
-52.6470059999999975
0
LINE
8
BLACK
6
CONTINUOUS
10
94.4756890000000027
20
-52.6470059999999975
11
94.769362000000001
21
-52.3533329999999992
0
LINE
8
BLACK
6
CONTINUOUS
10
94.769362000000001
20
-52.3533329999999992
11
95.0862829999999946
21
-52.0849139999999977
0
LINE
8
BLACK
6
CONTINUOUS
10
95.0862829999999946
20
-52.0849139999999977
11
95.4242869999999925
21
-51.8435829999999953
0
LINE
8
BLACK
6
CONTINUOUS
10
95.4242869999999925
20
-51.8435829999999953
11
95.7810659999999956
21
-51.6309889999999996
0
LINE
8
BLACK
6
CONTINUOUS
10
95.7810659999999956
20
-51.6309889999999996
11
96.1541819999999916
21
-51.4485829999999993
0
LINE
8
BLACK
6
CONTINUOUS
10
96.1541819999999916
20
-51.4485829999999993
11
96.5410859999999929
21
-51.2976120000000009
0
LINE
8
BLACK
6
CONTINUOUS
10
96.5410859999999929
20
-51.2976120000000009
11
96.9391359999999906
21
-51.1791069999999948
0
LINE
8
BLACK
6
CONTINUOUS
10
96.9391359999999906
20
-51.1791069999999948
11
97.3456130000000002
21
-51.0938769999999991
0
LINE
8
BLACK
6
CONTINUOUS
10
97.3456130000000002
20
-51.0938769999999991
11
97.7577399999999983
21
-51.0425049999999985
0
LINE
8
BLACK
6
CONTINUOUS
10
97.7577399999999983
20
-51.0425049999999985
11
98.1727009999999893
21
-51.0253409999999974
0
LINE
8
BLACK
6
CONTINUOUS
10
98.1727009999999893
20
-51.0253409999999974
11
98.1727009999999893
21
-51.025345999999999
0
LINE
8
BLACK
6
CONTINUOUS
10
98.1727009999999893
20
-51.025345999999999
11
98.1727530000000002
21
-51.0253620000000012
0
LINE
8
BLACK
6
CONTINUOUS
10
98.1727530000000002
20
-51.0253620000000012
11
186.5704829999999959
21
-51.0014439999999993
0
LINE
8
BLACK
6
CONTINUOUS
10
186.5704829999999959
20
-51.0014439999999993
11
186.9104829999999993
21
-51.0013519999999971
0
LINE
8
BLACK
6
CONTINUOUS
10
186.9104829999999993
20
-51.0013519999999971
11
186.9146089999999845
21
-51.002170999999997
0
LINE
8
BLACK
6
CONTINUOUS
10
186.5704969999999889
20
-51.0514439999999965
11
98.1727080000000001
21
-51.0753629999999958
0
LINE
8
BLACK
6
CONTINUOUS
10
98.1727080000000001
20
-51.0753629999999958
11
98.1725969999999961
21
-51.0753409999999946
0
LINE
8
BLACK
6
CONTINUOUS
10
98.1725969999999961
20
-51.0753409999999946
11
97.9669339999999949
21
-51.0753419999999991
0
LINE
8
BLACK
6
CONTINUOUS
10
97.9669339999999949
20
-51.0753419999999991
11
97.5568039999999996
21
-51.1093270000000004
0
LINE
8
BLACK
6
CONTINUOUS
10
97.5568039999999996
20
-51.1093270000000004
11
97.1508819999999957
21
-51.1770639999999943
0
LINE
8
BLACK
6
CONTINUOUS
10
97.1508819999999957
20
-51.1770639999999943
11
96.7519399999999905
21
-51.2780899999999988
0
LINE
8
BLACK
6
CONTINUOUS
10
96.7519399999999905
20
-51.2780899999999988
11
96.3627029999999962
21
-51.4117159999999984
0
LINE
8
BLACK
6
CONTINUOUS
10
96.3627029999999962
20
-51.4117159999999984
11
95.9858299999999929
21
-51.5770279999999985
0
LINE
8
BLACK
6
CONTINUOUS
10
95.9858299999999929
20
-51.5770279999999985
11
95.623896000000002
21
-51.7728979999999979
0
LINE
8
BLACK
6
CONTINUOUS
10
95.623896000000002
20
-51.7728979999999979
11
95.2793729999999925
21
-51.9979859999999974
0
LINE
8
BLACK
6
CONTINUOUS
10
95.2793729999999925
20
-51.9979859999999974
11
94.9546139999999923
21
-52.2507570000000001
0
LINE
8
BLACK
6
CONTINUOUS
10
94.9546139999999923
20
-52.2507570000000001
11
94.6518379999999979
21
-52.5294819999999945
0
LINE
8
BLACK
6
CONTINUOUS
10
94.6518379999999979
20
-52.5294819999999945
11
94.3731129999999894
21
-52.8322579999999959
0
LINE
8
BLACK
6
CONTINUOUS
10
94.3731129999999894
20
-52.8322579999999959
11
94.1203429999999912
21
-53.1570169999999962
0
LINE
8
BLACK
6
CONTINUOUS
10
94.1203429999999912
20
-53.1570169999999962
11
93.8952549999999917
21
-53.501540999999996
0
LINE
8
BLACK
6
CONTINUOUS
10
93.8952549999999917
20
-53.501540999999996
11
93.6993859999999898
21
-53.8634750000000011
0
LINE
8
BLACK
6
CONTINUOUS
10
93.6993859999999898
20
-53.8634750000000011
11
93.5340739999999897
21
-54.2403479999999973
0
LINE
8
BLACK
6
CONTINUOUS
10
93.5340739999999897
20
-54.2403479999999973
11
93.4004489999999947
21
-54.6295849999999987
0
LINE
8
BLACK
6
CONTINUOUS
10
93.4004489999999947
20
-54.6295849999999987
11
93.2994229999999902
21
-55.0285269999999969
0
LINE
8
BLACK
6
CONTINUOUS
10
93.2994229999999902
20
-55.0285269999999969
11
93.2316859999999963
21
-55.4344490000000008
0
LINE
8
BLACK
6
CONTINUOUS
10
93.2316859999999963
20
-55.4344490000000008
11
93.1977019999999925
21
-55.8445779999999985
0
LINE
8
BLACK
6
CONTINUOUS
10
93.1977019999999925
20
-55.8445779999999985
11
93.197700999999995
21
-56.0503459999999976
0
LINE
8
BLACK
6
CONTINUOUS
10
93.197700999999995
20
-56.0503459999999976
11
93.197694999999996
21
-56.0503609999999952
0
LINE
8
BLACK
6
CONTINUOUS
10
93.197694999999996
20
-56.0503609999999952
11
93.197700999999995
21
-56.0503879999999981
0
LINE
8
BLACK
6
CONTINUOUS
10
93.197700999999995
20
-56.0503879999999981
11
93.2334579999999988
21
-128.9872119999999995
0
LINE
8
BLACK
6
CONTINUOUS
10
93.2334579999999988
20
-128.9872119999999995
11
93.2322779999999938
21
-128.9931589999999915
0
LINE
8
BLACK
6
CONTINUOUS
10
93.2322779999999938
20
-128.9931589999999915
11
93.2334579999999988
21
-128.9967910000000018
0
LINE
8
BLACK
6
CONTINUOUS
10
93.2334579999999988
20
-128.9967910000000018
11
93.233508999999998
21
-128.9967910000000018
0
LINE
8
BLACK
6
CONTINUOUS
10
93.233508999999998
20
-128.9967910000000018
11
93.233508999999998
21
-129.2025569999999846
0
LINE
8
BLACK
6
CONTINUOUS
10
93.233508999999998
20
-129.2025569999999846
11
93.2674919999999901
21
-129.6126840000000016
0
LINE
8
BLACK
6
CONTINUOUS
10
93.2674919999999901
20
-129.6126840000000016
11
93.3352269999999891
21
-130.0186039999999821
0
LINE
8
BLACK
6
CONTINUOUS
10
93.3352269999999891
20
-130.0186039999999821
11
93.4362509999999986
21
-130.4175439999999924
0
LINE
8
BLACK
6
CONTINUOUS
10
93.4362509999999986
20
-130.4175439999999924
11
93.5698749999999961
21
-130.8067790000000059
0
LINE
8
BLACK
6
CONTINUOUS
10
93.5698749999999961
20
-130.8067790000000059
11
93.7351839999999896
21
-131.1836500000000001
0
LINE
8
BLACK
6
CONTINUOUS
10
93.7351839999999896
20
-131.1836500000000001
11
93.931049999999999
21
-131.5455829999999935
0
LINE
8
BLACK
6
CONTINUOUS
10
93.931049999999999
20
-131.5455829999999935
11
94.1561359999999894
21
-131.8901050000000055
0
LINE
8
BLACK
6
CONTINUOUS
10
94.1561359999999894
20
-131.8901050000000055
11
94.4089029999999951
21
-132.2148640000000057
0
LINE
8
BLACK
6
CONTINUOUS
10
94.4089029999999951
20
-132.2148640000000057
11
94.687624999999997
21
-132.5176390000000026
0
LINE
8
BLACK
6
CONTINUOUS
10
94.687624999999997
20
-132.5176390000000026
11
94.990397999999999
21
-132.7963639999999828
0
LINE
8
BLACK
6
CONTINUOUS
10
94.990397999999999
20
-132.7963639999999828
11
95.3151529999999951
21
-133.0491350000000068
0
LINE
8
BLACK
6
CONTINUOUS
10
95.3151529999999951
20
-133.0491350000000068
11
95.659672999999998
21
-133.2742240000000038
0
LINE
8
BLACK
6
CONTINUOUS
10
95.659672999999998
20
-133.2742240000000038
11
96.0216039999999964
21
-133.4700939999999889
0
LINE
8
BLACK
6
CONTINUOUS
10
96.0216039999999964
20
-133.4700939999999889
11
96.3984729999999956
21
-133.6354069999999865
0
LINE
8
BLACK
6
CONTINUOUS
10
96.3984729999999956
20
-133.6354069999999865
11
96.7877069999999975
21
-133.7690340000000049
0
LINE
8
BLACK
6
CONTINUOUS
10
96.7877069999999975
20
-133.7690340000000049
11
97.1866459999999961
21
-133.8700619999999901
0
LINE
8
BLACK
6
CONTINUOUS
10
97.1866459999999961
20
-133.8700619999999901
11
97.5925649999999933
21
-133.9378010000000074
0
LINE
8
BLACK
6
CONTINUOUS
10
97.5925649999999933
20
-133.9378010000000074
11
98.0026919999999961
21
-133.9717890000000011
0
LINE
8
BLACK
6
CONTINUOUS
10
98.0026919999999961
20
-133.9717890000000011
11
98.2084579999999931
21
-133.9717909999999961
0
LINE
8
BLACK
6
CONTINUOUS
10
98.2084579999999931
20
-133.9717909999999961
11
188.1431900000000041
21
-133.9717899999999986
0
LINE
8
BLACK
6
CONTINUOUS
10
188.1431900000000041
20
-133.9717899999999986
11
188.1431910000000016
21
-133.9717899999999986
0
LINE
8
BLACK
6
CONTINUOUS
10
188.1431910000000016
20
-133.9717899999999986
11
188.1431999999999789
21
-133.9717899999999986
0
LINE
8
BLACK
6
CONTINUOUS
10
188.1431999999999789
20
-133.9717899999999986
11
188.1432049999999947
21
-133.9717909999999961
0
LINE
8
BLACK
6
CONTINUOUS
10
188.1432049999999947
20
-133.9717909999999961
11
188.3489589999999794
21
-133.9717909999999961
0
LINE
8
BLACK
6
CONTINUOUS
10
188.3489589999999794
20
-133.9717909999999961
11
188.7590879999999913
21
-133.9378069999999923
0
LINE
8
BLACK
6
CONTINUOUS
10
188.7590879999999913
20
-133.9378069999999923
11
189.1650109999999927
21
-133.8700709999999958
0
LINE
8
BLACK
6
CONTINUOUS
10
189.1650109999999927
20
-133.8700709999999958
11
189.5639529999999979
21
-133.769046000000003
0
LINE
8
BLACK
6
CONTINUOUS
10
189.5639529999999979
20
-133.769046000000003
11
189.9531910000000039
21
-133.635421000000008
0
LINE
8
BLACK
6
CONTINUOUS
10
189.9531910000000039
20
-133.635421000000008
11
190.330063999999993
21
-133.4701090000000079
0
LINE
8
BLACK
6
CONTINUOUS
10
190.330063999999993
20
-133.4701090000000079
11
190.6919979999999839
21
-133.2742409999999893
0
LINE
8
BLACK
6
CONTINUOUS
10
190.6919979999999839
20
-133.2742409999999893
11
191.0365219999999908
21
-133.0491519999999923
0
LINE
8
BLACK
6
CONTINUOUS
10
191.0365219999999908
20
-133.0491519999999923
11
191.3612809999999911
21
-132.7963819999999942
0
LINE
8
BLACK
6
CONTINUOUS
10
191.3612809999999911
20
-132.7963819999999942
11
191.6640579999999829
21
-132.5176569999999856
0
LINE
8
BLACK
6
CONTINUOUS
10
191.6640579999999829
20
-132.5176569999999856
11
191.9427829999999915
21
-132.2148799999999937
0
LINE
8
BLACK
6
CONTINUOUS
10
191.9427829999999915
20
-132.2148799999999937
11
192.1955529999999897
21
-131.8901209999999935
0
LINE
8
BLACK
6
CONTINUOUS
10
192.1955529999999897
20
-131.8901209999999935
11
192.4206409999999892
21
-131.545597999999984
0
LINE
8
BLACK
6
CONTINUOUS
10
192.4206409999999892
20
-131.545597999999984
11
192.6165100000000052
21
-131.1836629999999957
0
LINE
8
BLACK
6
CONTINUOUS
10
192.6165100000000052
20
-131.1836629999999957
11
192.7818209999999794
21
-130.8067900000000066
0
LINE
8
BLACK
6
CONTINUOUS
10
192.7818209999999794
20
-130.8067900000000066
11
192.9154460000000029
21
-130.4175520000000006
0
LINE
8
BLACK
6
CONTINUOUS
10
192.9154460000000029
20
-130.4175520000000006
11
193.0164719999999932
21
-130.0186099999999954
0
LINE
8
BLACK
6
CONTINUOUS
10
193.0164719999999932
20
-130.0186099999999954
11
193.0842069999999921
21
-129.612686999999994
0
LINE
8
BLACK
6
CONTINUOUS
10
193.0842069999999921
20
-129.612686999999994
11
193.1181909999999959
21
-129.202557999999982
0
LINE
8
BLACK
6
CONTINUOUS
10
193.1181909999999959
20
-129.202557999999982
11
193.1181909999999959
21
-128.9967900000000043
0
LINE
8
BLACK
6
CONTINUOUS
10
193.1181909999999959
20
-128.9967900000000043
11
193.1181909999999959
21
-86.3715129999999931
0
LINE
8
BLACK
6
CONTINUOUS
10
193.1181909999999959
20
-86.3715129999999931
11
186.8895139999999913
21
-51.0513569999999959
0
LINE
8
BLACK
6
CONTINUOUS
10
186.8895139999999913
20
-51.0513569999999959
11
186.5704969999999889
21
-51.0514439999999965
  0
ENDSEC
  0
EOF
