  0
SECTION
  2
HEADER
  9
$ANGBASE
  50
0.0
  9
$ANGDIR
  70
1
  9
$MEASUREMENT
  70
0
  0
ENDSEC
  0
SECTION
  2
TABLES
  0
TABLE
  2
LTYPE
  70
4
  0
LTYPE
  5
40F
  2
CONTINUOUS
  70
0
  3
Solid line
  72
65
  73
0
  40
0.0
  0
LTYPE
  5
410
  2
DASHDOT
 70
0
  3
Dash Dot ____ _ ____ _
 72
65
 73
4
 40
2.0
 49
1.25
 49
-0.25
 49
0.25
 49
-0.25
  0
LTYPE
  5
411
  2
DASHED
 70
0
  3
Dashed __ __ __ __ __
 72
65
 73
2
 40
0.75
 49
0.5
 49
-0.25
  0
LTYPE
  5
43B
  2
DOTTED
 70
0
  3
Dotted .  .  .  .
 72
65
 73
2
 40
0.2
 49
0.0
 49
-0.2
  0
ENDTAB
  0
TABLE
  2
STYLE
  70
4
  0
STYLE
  2
KICAD
  70
0
  40
0
  41
1
  42
1
  50
0
  71
0
  3
isocp.shx
  0
STYLE
  2
KICADB
  70
0
  40
0
  41
1
  42
1
  50
0
  71
0
  3
isocp.shx
  0
STYLE
  2
KICADI
  70
0
  40
0
  41
1
  42
1
  50
15
  71
0
  3
isocp.shx
  0
STYLE
  2
KICADBI
  70
0
  40
0
  41
1
  42
1
  50
15
  71
0
  3
isocp.shx
  0
ENDTAB
  0
TABLE
  2
LAYER
  70
1
  0
LAYER
  2
BLACK
  70
0
  62
7
  6
CONTINUOUS
  0
ENDTAB
  0
ENDSEC
  0
SECTION
  2
ENTITIES
0
LINE
8
BLACK
6
CONTINUOUS
10
7.3588428740157479
20
-2.0079594881889764
11
7.3588937007874016
21
-2.0079505511811022
0
LINE
8
BLACK
6
CONTINUOUS
10
7.3588937007874016
20
-2.0079505511811022
11
7.3589316535433067
21
-2.0079771259842518
0
LINE
8
BLACK
6
CONTINUOUS
10
7.3589316535433067
20
-2.0079771259842518
11
7.3590571259842514
21
-2.0080020472440943
0
LINE
8
BLACK
6
CONTINUOUS
10
7.3590571259842514
20
-2.0080020472440943
11
7.3592672834645665
21
-2.0082121259842518
0
LINE
8
BLACK
6
CONTINUOUS
10
7.3592672834645665
20
-2.0082121259842518
11
7.3595108267716531
21
-2.0083826377952754
0
LINE
8
BLACK
6
CONTINUOUS
10
7.3595108267716531
20
-2.0083826377952754
11
7.3595571653543308
21
-2.0085018897637794
0
LINE
8
BLACK
6
CONTINUOUS
10
7.3595571653543308
20
-2.0085018897637794
11
7.3595899212598423
21
-2.0085346062992127
0
LINE
8
BLACK
6
CONTINUOUS
10
7.3595899212598423
20
-2.0085346062992127
11
7.3595899212598423
21
-2.0085860629921259
0
LINE
8
BLACK
6
CONTINUOUS
10
7.3595899212598423
20
-2.0085860629921259
11
7.3596500000000002
21
-2.0087405511811025
0
LINE
8
BLACK
6
CONTINUOUS
10
7.3596500000000002
20
-2.0087405511811025
11
7.6050319291338582
21
-3.400196220472441
0
LINE
8
BLACK
6
CONTINUOUS
10
7.6050319291338582
20
-3.400196220472441
11
7.6050300393700789
21
-3.4002825196850393
0
LINE
8
BLACK
6
CONTINUOUS
10
7.6050300393700789
20
-3.4002825196850393
11
7.6050468897637797
21
-3.4003671653543308
0
LINE
8
BLACK
6
CONTINUOUS
10
7.6050468897637797
20
-3.4003671653543308
11
7.6050468897637797
21
-5.0786137795275588
0
LINE
8
BLACK
6
CONTINUOUS
10
7.6050468897637797
20
-5.0786137795275588
11
7.6043712204724407
21
-5.0949508267716537
0
LINE
8
BLACK
6
CONTINUOUS
10
7.6043712204724407
20
-5.0949508267716537
11
7.6023487401574803
21
-5.1111762992125982
0
LINE
8
BLACK
6
CONTINUOUS
10
7.6023487401574803
20
-5.1111762992125982
11
7.5989932677165353
21
-5.12717937007874
0
LINE
8
BLACK
6
CONTINUOUS
10
7.5989932677165353
20
-5.12717937007874
11
7.5943277559055113
21
-5.1428506299212593
0
LINE
8
BLACK
6
CONTINUOUS
10
7.5943277559055113
20
-5.1428506299212593
11
7.5883840551181097
21
-5.1580831102362206
0
LINE
8
BLACK
6
CONTINUOUS
10
7.5883840551181097
20
-5.1580831102362206
11
7.5812027559055117
21
-5.1727727559055117
0
LINE
8
BLACK
6
CONTINUOUS
10
7.5812027559055117
20
-5.1727727559055117
11
7.5728329133858265
21
-5.1868191732283462
0
LINE
8
BLACK
6
CONTINUOUS
10
7.5728329133858265
20
-5.1868191732283462
11
7.563331692913386
21
-5.2001264566929128
0
LINE
8
BLACK
6
CONTINUOUS
10
7.563331692913386
20
-5.2001264566929128
11
7.5527640551181099
21
-5.2126036614173223
0
LINE
8
BLACK
6
CONTINUOUS
10
7.5527640551181099
20
-5.2126036614173223
11
7.5412021259842517
21
-5.2241655905511806
0
LINE
8
BLACK
6
CONTINUOUS
10
7.5412021259842517
20
-5.2241655905511806
11
7.5287249212598422
21
-5.2347332677165355
0
LINE
8
BLACK
6
CONTINUOUS
10
7.5287249212598422
20
-5.2347332677165355
11
7.5154176377952755
21
-5.2442344488188972
0
LINE
8
BLACK
6
CONTINUOUS
10
7.5154176377952755
20
-5.2442344488188972
11
7.501371220472441
21
-5.2526042913385824
0
LINE
8
BLACK
6
CONTINUOUS
10
7.501371220472441
20
-5.2526042913385824
11
7.486681574803149
21
-5.2597855905511812
0
LINE
8
BLACK
6
CONTINUOUS
10
7.486681574803149
20
-5.2597855905511812
11
7.4714490944881886
21
-5.2657293307086617
0
LINE
8
BLACK
6
CONTINUOUS
10
7.4714490944881886
20
-5.2657293307086617
11
7.4557778346456693
21
-5.2703948425196847
0
LINE
8
BLACK
6
CONTINUOUS
10
7.4557778346456693
20
-5.2703948425196847
11
7.4397747637795275
21
-5.2737503149606297
0
LINE
8
BLACK
6
CONTINUOUS
10
7.4397747637795275
20
-5.2737503149606297
11
7.4235492913385821
21
-5.2757727952755902
0
LINE
8
BLACK
6
CONTINUOUS
10
7.4235492913385821
20
-5.2757727952755902
11
7.4072122440944881
21
-5.2764484645669292
0
LINE
8
BLACK
6
CONTINUOUS
10
7.4072122440944881
20
-5.2764484645669292
11
7.4072122440944881
21
-5.2764484251968504
0
LINE
8
BLACK
6
CONTINUOUS
10
7.4072122440944881
20
-5.2764484251968504
11
3.8664747244094486
21
-5.2764484645669292
0
LINE
8
BLACK
6
CONTINUOUS
10
3.8664747244094486
20
-5.2764484645669292
11
3.8501377559055117
21
-5.2757726377952752
0
LINE
8
BLACK
6
CONTINUOUS
10
3.8501377559055117
20
-5.2757726377952752
11
3.833912401574803
21
-5.2737499999999997
0
LINE
8
BLACK
6
CONTINUOUS
10
3.833912401574803
20
-5.2737499999999997
11
3.8179095275590549
21
-5.2703944488188972
0
LINE
8
BLACK
6
CONTINUOUS
10
3.8179095275590549
20
-5.2703944488188972
11
3.8022383858267714
21
-5.2657288188976379
0
LINE
8
BLACK
6
CONTINUOUS
10
3.8022383858267714
20
-5.2657288188976379
11
3.7870060236220473
21
-5.2597849999999999
0
LINE
8
BLACK
6
CONTINUOUS
10
3.7870060236220473
20
-5.2597849999999999
11
3.7723165748031495
21
-5.2526036614173224
0
LINE
8
BLACK
6
CONTINUOUS
10
3.7723165748031495
20
-5.2526036614173224
11
3.7582702755905513
21
-5.2442337795275593
0
LINE
8
BLACK
6
CONTINUOUS
10
3.7582702755905513
20
-5.2442337795275593
11
3.7449631496062992
21
-5.2347325590551179
0
LINE
8
BLACK
6
CONTINUOUS
10
3.7449631496062992
20
-5.2347325590551179
11
3.7324861023622047
21
-5.2241648818897639
0
LINE
8
BLACK
6
CONTINUOUS
10
3.7324861023622047
20
-5.2241648818897639
11
3.7209242913385827
21
-5.2126029921259844
0
LINE
8
BLACK
6
CONTINUOUS
10
3.7209242913385827
20
-5.2126029921259844
11
3.7103567716535433
21
-5.2001257874015749
0
LINE
8
BLACK
6
CONTINUOUS
10
3.7103567716535433
20
-5.2001257874015749
11
3.7008556692913386
21
-5.1868185826771649
0
LINE
8
BLACK
6
CONTINUOUS
10
3.7008556692913386
20
-5.1868185826771649
11
3.6924859448818896
21
-5.1727722047244091
0
LINE
8
BLACK
6
CONTINUOUS
10
3.6924859448818896
20
-5.1727722047244091
11
3.6853047244094488
21
-5.1580826771653543
0
LINE
8
BLACK
6
CONTINUOUS
10
3.6853047244094488
20
-5.1580826771653543
11
3.6793611023622046
21
-5.1428502755905514
0
LINE
8
BLACK
6
CONTINUOUS
10
3.6793611023622046
20
-5.1428502755905514
11
3.6746956299212599
21
-5.1271790944881888
0
LINE
8
BLACK
6
CONTINUOUS
10
3.6746956299212599
20
-5.1271790944881888
11
3.6713401968503936
21
-5.1111761417322832
0
LINE
8
BLACK
6
CONTINUOUS
10
3.6713401968503936
20
-5.1111761417322832
11
3.6693177559055119
21
-5.0949507874015749
0
LINE
8
BLACK
6
CONTINUOUS
10
3.6693177559055119
20
-5.0949507874015749
11
3.6686420866141733
21
-5.0786138188976375
0
LINE
8
BLACK
6
CONTINUOUS
10
3.6686420866141733
20
-5.0786138188976375
11
3.6686400787401574
21
-5.0786138188976375
0
LINE
8
BLACK
6
CONTINUOUS
10
3.6686400787401574
20
-5.0786138188976375
11
3.6686865354330709
21
-5.0784707086614169
0
LINE
8
BLACK
6
CONTINUOUS
10
3.6686865354330709
20
-5.0784707086614169
11
3.6686400787401574
21
-5.0782376377952758
0
LINE
8
BLACK
6
CONTINUOUS
10
3.6686400787401574
20
-5.0782376377952758
11
3.6672323228346455
21
-2.2067091338582676
0
LINE
8
BLACK
6
CONTINUOUS
10
3.6672323228346455
20
-2.2067091338582676
11
3.6672326377952755
21
-2.2067075196850392
0
LINE
8
BLACK
6
CONTINUOUS
10
3.6672326377952755
20
-2.2067075196850392
11
3.6672323228346455
21
-2.2067065354330708
0
LINE
8
BLACK
6
CONTINUOUS
10
3.6672323228346455
20
-2.2067065354330708
11
3.6679080314960628
21
-2.1903694881889764
0
LINE
8
BLACK
6
CONTINUOUS
10
3.6679080314960628
20
-2.1903694881889764
11
3.6699305511811025
21
-2.1741440157480314
0
LINE
8
BLACK
6
CONTINUOUS
10
3.6699305511811025
20
-2.1741440157480314
11
3.673286023622047
21
-2.1581409842519683
0
LINE
8
BLACK
6
CONTINUOUS
10
3.673286023622047
20
-2.1581409842519683
11
3.6779515748031497
21
-2.1424697244094486
0
LINE
8
BLACK
6
CONTINUOUS
10
3.6779515748031497
20
-2.1424697244094486
11
3.6838953149606297
21
-2.1272372440944882
0
LINE
8
BLACK
6
CONTINUOUS
10
3.6838953149606297
20
-2.1272372440944882
11
3.6910766141732281
21
-2.1125476377952754
0
LINE
8
BLACK
6
CONTINUOUS
10
3.6910766141732281
20
-2.1125476377952754
11
3.6994464566929133
21
-2.0985012204724409
0
LINE
8
BLACK
6
CONTINUOUS
10
3.6994464566929133
20
-2.0985012204724409
11
3.7089476771653542
21
-2.0851939763779526
0
LINE
8
BLACK
6
CONTINUOUS
10
3.7089476771653542
20
-2.0851939763779526
11
3.7195153149606299
21
-2.0727167716535431
0
LINE
8
BLACK
6
CONTINUOUS
10
3.7195153149606299
20
-2.0727167716535431
11
3.7310772440944882
21
-2.0611548425196848
0
LINE
8
BLACK
6
CONTINUOUS
10
3.7310772440944882
20
-2.0611548425196848
11
3.7435544488188977
21
-2.0505871653543308
0
LINE
8
BLACK
6
CONTINUOUS
10
3.7435544488188977
20
-2.0505871653543308
11
3.7568616929133856
21
-2.0410859448818899
0
LINE
8
BLACK
6
CONTINUOUS
10
3.7568616929133856
20
-2.0410859448818899
11
3.7709081102362205
21
-2.0327161023622047
0
LINE
8
BLACK
6
CONTINUOUS
10
3.7709081102362205
20
-2.0327161023622047
11
3.7855977165354329
21
-2.0255347637795276
0
LINE
8
BLACK
6
CONTINUOUS
10
3.7855977165354329
20
-2.0255347637795276
11
3.8008301574803149
21
-2.0195910236220471
0
LINE
8
BLACK
6
CONTINUOUS
10
3.8008301574803149
20
-2.0195910236220471
11
3.8165014173228347
21
-2.0149254724409449
0
LINE
8
BLACK
6
CONTINUOUS
10
3.8165014173228347
20
-2.0149254724409449
11
3.8325044488188977
21
-2.0115699606299211
0
LINE
8
BLACK
6
CONTINUOUS
10
3.8325044488188977
20
-2.0115699606299211
11
3.8487299212598423
21
-2.0095474409448819
0
LINE
8
BLACK
6
CONTINUOUS
10
3.8487299212598423
20
-2.0095474409448819
11
3.8650669685039367
21
-2.0088716929133859
0
LINE
8
BLACK
6
CONTINUOUS
10
3.8650669685039367
20
-2.0088716929133859
11
3.8650669685039367
21
-2.0088718897637796
0
LINE
8
BLACK
6
CONTINUOUS
10
3.8650669685039367
20
-2.0088718897637796
11
3.8650690157480314
21
-2.0088725196850392
0
LINE
8
BLACK
6
CONTINUOUS
10
3.8650690157480314
20
-2.0088725196850392
11
7.3452946062992126
21
-2.0079308661417321
0
LINE
8
BLACK
6
CONTINUOUS
10
7.3452946062992126
20
-2.0079308661417321
11
7.3586804330708659
21
-2.0079272440944882
0
LINE
8
BLACK
6
CONTINUOUS
10
7.3586804330708659
20
-2.0079272440944882
11
7.3588428740157479
21
-2.0079594881889764
0
LINE
8
BLACK
6
CONTINUOUS
10
7.3452951574803151
20
-2.00989937007874
11
3.865067244094488
21
-2.0108410629921258
0
LINE
8
BLACK
6
CONTINUOUS
10
3.865067244094488
20
-2.0108410629921258
11
3.8650628740157478
21
-2.0108401968503937
0
LINE
8
BLACK
6
CONTINUOUS
10
3.8650628740157478
20
-2.0108401968503937
11
3.8569659055118111
21
-2.0108402362204725
0
LINE
8
BLACK
6
CONTINUOUS
10
3.8569659055118111
20
-2.0108402362204725
11
3.8408190551181103
21
-2.0121782283464564
0
LINE
8
BLACK
6
CONTINUOUS
10
3.8408190551181103
20
-2.0121782283464564
11
3.8248378740157478
21
-2.0148450393700785
0
LINE
8
BLACK
6
CONTINUOUS
10
3.8248378740157478
20
-2.0148450393700785
11
3.8091314960629918
21
-2.0188224409448821
0
LINE
8
BLACK
6
CONTINUOUS
10
3.8091314960629918
20
-2.0188224409448821
11
3.7938072047244096
21
-2.024083307086614
0
LINE
8
BLACK
6
CONTINUOUS
10
3.7938072047244096
20
-2.024083307086614
11
3.7789696850393701
21
-2.0305916535433068
0
LINE
8
BLACK
6
CONTINUOUS
10
3.7789696850393701
20
-2.0305916535433068
11
3.7647203149606296
21
-2.0383030708661418
0
LINE
8
BLACK
6
CONTINUOUS
10
3.7647203149606296
20
-2.0383030708661418
11
3.7511564173228344
21
-2.0471648031496064
0
LINE
8
BLACK
6
CONTINUOUS
10
3.7511564173228344
20
-2.0471648031496064
11
3.7383706299212598
21
-2.0571164173228347
0
LINE
8
BLACK
6
CONTINUOUS
10
3.7383706299212598
20
-2.0571164173228347
11
3.7264503149606298
21
-2.0680898425196852
0
LINE
8
BLACK
6
CONTINUOUS
10
3.7264503149606298
20
-2.0680898425196852
11
3.7154768897637793
21
-2.0800101574803147
0
LINE
8
BLACK
6
CONTINUOUS
10
3.7154768897637793
20
-2.0800101574803147
11
3.7055253149606298
21
-2.0927959448818898
0
LINE
8
BLACK
6
CONTINUOUS
10
3.7055253149606298
20
-2.0927959448818898
11
3.6966635826771652
21
-2.1063598818897638
0
LINE
8
BLACK
6
CONTINUOUS
10
3.6966635826771652
20
-2.1063598818897638
11
3.6889522047244094
21
-2.1206092519685038
0
LINE
8
BLACK
6
CONTINUOUS
10
3.6889522047244094
20
-2.1206092519685038
11
3.6824438582677166
21
-2.1354467716535432
0
LINE
8
BLACK
6
CONTINUOUS
10
3.6824438582677166
20
-2.1354467716535432
11
3.677183031496063
21
-2.1507710629921259
0
LINE
8
BLACK
6
CONTINUOUS
10
3.677183031496063
20
-2.1507710629921259
11
3.6732056299212599
21
-2.1664774409448819
0
LINE
8
BLACK
6
CONTINUOUS
10
3.6732056299212599
20
-2.1664774409448819
11
3.6705388188976378
21
-2.1824586220472439
0
LINE
8
BLACK
6
CONTINUOUS
10
3.6705388188976378
20
-2.1824586220472439
11
3.6692008661417321
21
-2.198605433070866
0
LINE
8
BLACK
6
CONTINUOUS
10
3.6692008661417321
20
-2.198605433070866
11
3.6692008267716534
21
-2.2067065354330708
0
LINE
8
BLACK
6
CONTINUOUS
10
3.6692008267716534
20
-2.2067065354330708
11
3.6692005905511809
21
-2.2067071259842521
0
LINE
8
BLACK
6
CONTINUOUS
10
3.6692005905511809
20
-2.2067071259842521
11
3.6692008267716534
21
-2.206708188976378
0
LINE
8
BLACK
6
CONTINUOUS
10
3.6692008267716534
20
-2.206708188976378
11
3.6706085826771653
21
-5.0782366929133858
0
LINE
8
BLACK
6
CONTINUOUS
10
3.6706085826771653
20
-5.0782366929133858
11
3.6705621259842518
21
-5.0784708267716532
0
LINE
8
BLACK
6
CONTINUOUS
10
3.6705621259842518
20
-5.0784708267716532
11
3.6706085826771653
21
-5.0786138188976375
0
LINE
8
BLACK
6
CONTINUOUS
10
3.6706085826771653
20
-5.0786138188976375
11
3.6706105905511812
21
-5.0786138188976375
0
LINE
8
BLACK
6
CONTINUOUS
10
3.6706105905511812
20
-5.0786138188976375
11
3.6706105905511812
21
-5.0867148425196849
0
LINE
8
BLACK
6
CONTINUOUS
10
3.6706105905511812
20
-5.0867148425196849
11
3.6719485039370077
21
-5.1028615748031498
0
LINE
8
BLACK
6
CONTINUOUS
10
3.6719485039370077
20
-5.1028615748031498
11
3.6746152362204723
21
-5.1188426771653539
0
LINE
8
BLACK
6
CONTINUOUS
10
3.6746152362204723
20
-5.1188426771653539
11
3.6785925590551178
21
-5.1345489763779524
0
LINE
8
BLACK
6
CONTINUOUS
10
3.6785925590551178
20
-5.1345489763779524
11
3.6838533464566927
21
-5.149873188976378
0
LINE
8
BLACK
6
CONTINUOUS
10
3.6838533464566927
20
-5.149873188976378
11
3.6903615748031493
21
-5.1647106299212595
0
LINE
8
BLACK
6
CONTINUOUS
10
3.6903615748031493
20
-5.1647106299212595
11
3.6980728346456693
21
-5.1789599606299213
0
LINE
8
BLACK
6
CONTINUOUS
10
3.6980728346456693
20
-5.1789599606299213
11
3.7069344881889763
21
-5.1925238188976373
0
LINE
8
BLACK
6
CONTINUOUS
10
3.7069344881889763
20
-5.1925238188976373
11
3.7168859448818896
21
-5.2053096062992124
0
LINE
8
BLACK
6
CONTINUOUS
10
3.7168859448818896
20
-5.2053096062992124
11
3.7278592519685039
21
-5.2172298818897636
0
LINE
8
BLACK
6
CONTINUOUS
10
3.7278592519685039
20
-5.2172298818897636
11
3.7397794488188976
21
-5.2282033070866136
0
LINE
8
BLACK
6
CONTINUOUS
10
3.7397794488188976
20
-5.2282033070866136
11
3.7525650787401572
21
-5.2381549212598424
0
LINE
8
BLACK
6
CONTINUOUS
10
3.7525650787401572
20
-5.2381549212598424
11
3.7661288582677166
21
-5.2470166929133857
0
LINE
8
BLACK
6
CONTINUOUS
10
3.7661288582677166
20
-5.2470166929133857
11
3.7803781102362204
21
-5.2547281102362202
0
LINE
8
BLACK
6
CONTINUOUS
10
3.7803781102362204
20
-5.2547281102362202
11
3.7952154724409448
21
-5.2612364960629918
0
LINE
8
BLACK
6
CONTINUOUS
10
3.7952154724409448
20
-5.2612364960629918
11
3.8105396456692913
21
-5.266497401574803
0
LINE
8
BLACK
6
CONTINUOUS
10
3.8105396456692913
20
-5.266497401574803
11
3.826245905511811
21
-5.270474881889764
0
LINE
8
BLACK
6
CONTINUOUS
10
3.826245905511811
20
-5.270474881889764
11
3.8422269685039367
21
-5.2731417716535436
0
LINE
8
BLACK
6
CONTINUOUS
10
3.8422269685039367
20
-5.2731417716535436
11
3.8583737007874013
21
-5.2744798818897634
0
LINE
8
BLACK
6
CONTINUOUS
10
3.8583737007874013
20
-5.2744798818897634
11
3.8664747244094486
21
-5.2744799606299209
0
LINE
8
BLACK
6
CONTINUOUS
10
3.8664747244094486
20
-5.2744799606299209
11
7.4072122047244093
21
-5.2744799212598421
0
LINE
8
BLACK
6
CONTINUOUS
10
7.4072122047244093
20
-5.2744799212598421
11
7.4072122440944881
21
-5.2744799212598421
0
LINE
8
BLACK
6
CONTINUOUS
10
7.4072122440944881
20
-5.2744799212598421
11
7.4072125984251969
21
-5.2744799212598421
0
LINE
8
BLACK
6
CONTINUOUS
10
7.4072125984251969
20
-5.2744799212598421
11
7.4072127952755906
21
-5.2744799606299209
0
LINE
8
BLACK
6
CONTINUOUS
10
7.4072127952755906
20
-5.2744799606299209
11
7.4153133464566929
21
-5.2744799606299209
0
LINE
8
BLACK
6
CONTINUOUS
10
7.4153133464566929
20
-5.2744799606299209
11
7.4314601574803145
21
-5.2731420078740152
0
LINE
8
BLACK
6
CONTINUOUS
10
7.4314601574803145
20
-5.2731420078740152
11
7.4474413779527557
21
-5.2704752362204728
0
LINE
8
BLACK
6
CONTINUOUS
10
7.4474413779527557
20
-5.2704752362204728
11
7.4631477559055117
21
-5.266497874015748
0
LINE
8
BLACK
6
CONTINUOUS
10
7.4631477559055117
20
-5.266497874015748
11
7.4784720866141727
21
-5.2612370472440944
0
LINE
8
BLACK
6
CONTINUOUS
10
7.4784720866141727
20
-5.2612370472440944
11
7.4933096062992126
21
-5.2547287007874015
0
LINE
8
BLACK
6
CONTINUOUS
10
7.4933096062992126
20
-5.2547287007874015
11
7.5075589763779522
21
-5.2470173622047245
0
LINE
8
BLACK
6
CONTINUOUS
10
7.5075589763779522
20
-5.2470173622047245
11
7.5211229133858266
21
-5.2381555905511812
0
LINE
8
BLACK
6
CONTINUOUS
10
7.5211229133858266
20
-5.2381555905511812
11
7.5339087007874017
21
-5.2282040157480312
0
LINE
8
BLACK
6
CONTINUOUS
10
7.5339087007874017
20
-5.2282040157480312
11
7.5458290551181104
21
-5.2172305905511811
0
LINE
8
BLACK
6
CONTINUOUS
10
7.5458290551181104
20
-5.2172305905511811
11
7.5568024803149605
21
-5.2053102362204724
0
LINE
8
BLACK
6
CONTINUOUS
10
7.5568024803149605
20
-5.2053102362204724
11
7.5667540551181105
21
-5.1925244488188973
0
LINE
8
BLACK
6
CONTINUOUS
10
7.5667540551181105
20
-5.1925244488188973
11
7.575615787401575
21
-5.1789605511811025
0
LINE
8
BLACK
6
CONTINUOUS
10
7.575615787401575
20
-5.1789605511811025
11
7.5833271653543308
21
-5.1647111417322833
0
LINE
8
BLACK
6
CONTINUOUS
10
7.5833271653543308
20
-5.1647111417322833
11
7.5898354724409449
21
-5.1498736220472443
0
LINE
8
BLACK
6
CONTINUOUS
10
7.5898354724409449
20
-5.1498736220472443
11
7.5950962992125985
21
-5.1345492913385824
0
LINE
8
BLACK
6
CONTINUOUS
10
7.5950962992125985
20
-5.1345492913385824
11
7.5990737007874012
21
-5.1188429133858264
0
LINE
8
BLACK
6
CONTINUOUS
10
7.5990737007874012
20
-5.1188429133858264
11
7.6017404330708658
21
-5.1028616929133861
0
LINE
8
BLACK
6
CONTINUOUS
10
7.6017404330708658
20
-5.1028616929133861
11
7.6030783858267714
21
-5.0867148818897636
0
LINE
8
BLACK
6
CONTINUOUS
10
7.6030783858267714
20
-5.0867148818897636
11
7.6030783858267714
21
-5.0786137795275588
0
LINE
8
BLACK
6
CONTINUOUS
10
7.6030783858267714
20
-5.0786137795275588
11
7.6030783858267714
21
-3.4004532677165353
0
LINE
8
BLACK
6
CONTINUOUS
10
7.6030783858267714
20
-3.4004532677165353
11
7.3578548818897636
21
-2.0098959448818898
0
LINE
8
BLACK
6
CONTINUOUS
10
7.3578548818897636
20
-2.0098959448818898
11
7.3452951574803151
21
-2.00989937007874
  0
ENDSEC
  0
EOF
