0
SECTION
2
HEADER
9
$INSUNITS
70
4
9
$ACADVER
1
AC1014
9
$HANDSEED
5
FFFF
0
ENDSEC
0
SECTION
2
TABLES
0
TABLE
2
VPORT
5
8
100
AcDbSymbolTable
0
ENDTAB
0
TABLE
2
LTYPE
5
5
100
AcDbSymbolTable
0
LTYPE
5
14
100
AcDbSymbolTableRecord
100
AcDbLinetypeTableRecord
2
BYBLOCK
70
0
0
LTYPE
5
15
100
AcDbSymbolTableRecord
100
AcDbLinetypeTableRecord
2
BYLAYER
70
0
0
LTYPE
5
16
100
AcDbSymbolTableRecord
100
AcDbLinetypeTableRecord
2
DASHED
70
0
3
Dashed __ __ __ __ __ __ __ __ __ __ __ __ __ _
72
65
73
2
40
0.75
49
0.5
74
0
49
-0.25
74
0
0
ENDTAB
0
TABLE
2
LAYER
5
2
100
AcDbSymbolTable
70
2
0
LAYER
5
50
100
AcDbSymbolTableRecord
100
AcDbLayerTableRecord
2
0
70
0
62
7
6
CONTINUOUS
0
ENDTAB
0
TABLE
2
STYLE
5
3
100
AcDbSymbolTable
70
1
0
STYLE
5
11
100
AcDbSymbolTableRecord
100
AcDbTextStyleTableRecord
2
STANDARD
70
0
0
ENDTAB
0
TABLE
2
VIEW
5
6
100
AcDbSymbolTable
70
0
0
ENDTAB
0
TABLE
2
UCS
5
7
100
AcDbSymbolTable
70
0
0
ENDTAB
0
TABLE
2
APPID
5
9
100
AcDbSymbolTable
70
2
0
APPID
5
12
100
AcDbSymbolTableRecord
100
AcDbRegAppTableRecord
2
ACAD
70
0
0
ENDTAB
0
TABLE
2
DIMSTYLE
5
A
100
AcDbSymbolTable
70
1
0
ENDTAB
0
TABLE
2
BLOCK_RECORD
5
1
100
AcDbSymbolTable
70
1
0
BLOCK_RECORD
5
1F
100
AcDbSymbolTableRecord
100
AcDbBlockTableRecord
2
*MODEL_SPACE
0
BLOCK_RECORD
5
1B
100
AcDbSymbolTableRecord
100
AcDbBlockTableRecord
2
*PAPER_SPACE
0
ENDTAB
0
ENDSEC
0
SECTION
2
BLOCKS
0
BLOCK
5
20
100
AcDbEntity
100
AcDbBlockBegin
2
*MODEL_SPACE
0
ENDBLK
5
21
100
AcDbEntity
100
AcDbBlockEnd
0
BLOCK
5
1C
100
AcDbEntity
100
AcDbBlockBegin
2
*PAPER_SPACE
0
ENDBLK
5
1D
100
AcDbEntity
100
AcDbBlockEnd
0
ENDSEC
0
SECTION
2
ENTITIES
0
CIRCLE
5
100
100
AcDbEntity
8
0
100
AcDbCircle
10
-212.12913697689388
20
52.466772190228269
30
0
40
0.54999999999999716
210
-5.8224087193634166e-61
220
-3.944304526105059e-31
230
1
0
CIRCLE
5
101
100
AcDbEntity
8
0
100
AcDbCircle
10
-166.372967873383
20
51.868290727532539
30
0
40
1.0999999999999943
210
-5.8224087193634055e-61
220
-3.944304526105059e-31
230
1
0
CIRCLE
5
102
100
AcDbEntity
8
0
100
AcDbCircle
10
-312.0576507333472
20
32.50989540247123
30
2.5243548967072378e-28
40
1.0999999999999943
210
-5.8224087193634055e-61
220
-3.944304526105059e-31
230
1
0
CIRCLE
5
103
100
AcDbEntity
8
0
100
AcDbCircle
10
-219.31180417097443
20
55.769693923948068
30
0
40
0.54999999999999716
210
-5.8224087193634166e-61
220
-3.944304526105059e-31
230
1
0
CIRCLE
5
104
100
AcDbEntity
8
0
100
AcDbCircle
10
-90.527657266652312
20
127.36021311817503
30
0
40
1.0999999999999943
210
-5.8224087193634055e-61
220
-3.944304526105059e-31
230
1
0
LWPOLYLINE
5
105
100
AcDbEntity
8
0
100
AcDbPolyline
90
8
70
1
43
0.0
10
-181.0705637251765
20
120.15272546117674
10
-179.82029684597467
20
127.24334128286465
10
-178.41842181376106
20
126.99615289110385
42
-1.2520253861514268
10
-176.59357543903099
20
126.67438323959095
10
-175.19170040681729
20
126.42719484783014
10
-176.44196728601909
20
119.33657902614222
10
-177.84384231823276
20
119.58376741790303
42
-1.2520253861513686
10
-179.6686886929628
20
119.90553706941596
0
LWPOLYLINE
5
106
100
AcDbEntity
8
0
100
AcDbPolyline
90
26
70
1
43
0.0
10
-301.19459046191662
20
71.505125571976322
42
0.18014117965340501
10
-297.22409165139544
20
69.699023424851305
10
-256.30325961269227
20
66.811548946958794
10
-249.59856951053979
20
69.801752035947672
10
-249.5797944563206
20
69.695273412292067
10
-248.17791942410696
20
69.942461804052897
42
1.252025386151373
10
-246.35307304937692
20
70.264231455565863
10
-244.95119801716325
20
70.511419847326692
10
-245.17400961587757
20
71.775047216315158
10
-237.55843570454613
20
75.171492434085266
10
-219.64649245353374
20
78.329849367171605
42
0.24157299840120611
10
-215.09894203668566
20
81.776856033839039
42
0.479557178221719
10
-214.75776774746583
20
82.648182590747467
42
0.099084085665572044
10
-214.51103341768473
20
85.088761533225451
10
-212.46168681191023
20
85.450116632646854
42
0.48111094744793148
10
-211.75069551063885
20
86.753378451897476
10
-210.34882047842518
20
87.000566843658333
10
-211.59908735762716
20
94.091182665346196
10
-213.00096238984085
20
93.843994273585366
42
1.252025386151423
10
-214.82580876457089
20
93.5222246220724
10
-216.2276837967845
20
93.275036230311599
10
-215.94559812750941
20
91.675248902577025
10
-241.24447903582325
20
87.214376355340519
10
-258.54066494089523
20
79.500506253504227
10
-296.34424860680434
20
82.168020025094847
42
0.6616923315124148
10
-301.57664513927267
20
71.921703773361983
42
0.25027111013086917
0
CIRCLE
5
107
100
AcDbEntity
8
0
100
AcDbCircle
10
-305.55765073334726
20
127.36021311817503
30
2.5243548967072378e-28
40
1.0999999999999943
210
-5.8224087193634055e-61
220
-3.944304526105059e-31
230
1
0
LWPOLYLINE
5
108
100
AcDbEntity
8
0
100
AcDbPolyline
90
12
70
1
43
0.0
10
-122.62707329713837
20
115.24588891146055
42
0.35181423648736371
10
-127.78596744552647
20
121.13162815093733
10
-167.65221745560783
20
128.16112263195717
42
0.35181422040108545
10
-174.51303327367597
20
124.39478260851678
42
0.33546099574217098
10
-174.82583789059109
20
123.41847138427168
42
0.13232185787795092
10
-174.71154356149054
20
120.16935872804854
42
0.47955710632058224
10
-174.37036929963011
20
119.29803225475383
42
0.24157297760674026
10
-169.82281937235064
20
115.85102566568465
10
-129.95656936226931
20
108.82153118466479
42
0.24157296481014046
10
-124.50432486474789
20
110.50530422047331
42
0.47955706207380794
10
-123.88571475661549
20
111.20739476519032
42
0.13232186227543818
10
-122.66705120654541
20
114.22147108747943
42
0.33546095101422885
0
CIRCLE
5
109
100
AcDbEntity
8
0
100
AcDbCircle
10
-177.55492062852625
20
51.33805903539313
30
0
40
0.54999999999999716
210
-5.8224087193634055e-61
220
-3.944304526105059e-31
230
1
0
LWPOLYLINE
5
110
100
AcDbEntity
8
0
100
AcDbPolyline
90
26
70
1
43
0.0
10
-185.73648752157476
20
87.000566843658248
10
-184.48622064237293
20
94.091182665346139
10
-183.08434561015929
20
93.843994273585338
42
-1.2520253861514268
10
-181.25949923542922
20
93.522224622072443
10
-179.85762420321552
20
93.275036230311628
10
-180.13970987249058
20
91.675248902577025
10
-154.84082896417658
20
87.214376355340818
10
-137.54464305910457
20
79.50050625350471
10
-99.741059393195414
20
82.168020025095757
42
-0.66169233151241114
10
-94.508662860726929
20
71.921703773363006
42
-0.25027111013095482
10
-94.890717538083109
20
71.505125571977175
42
-0.18014117965339904
10
-98.861216348604216
20
69.699023424852243
10
-139.78204838730736
20
66.811548946959235
10
-146.48673848945984
20
69.801752035948027
10
-146.50551354367903
20
69.695273412292437
10
-147.90738857589267
20
69.942461804053252
42
-1.2520253861513582
10
-149.73223495062277
20
70.264231455566161
10
-151.13410998283643
20
70.511419847326962
10
-150.91129838412212
20
71.775047216315514
10
-158.52687229545361
20
75.171492434085536
10
-176.43881554646606
20
78.32984936717169
42
-0.24157299840120425
10
-180.98636596331414
20
81.776856033839039
42
-0.47955717822171784
10
-181.32754025253394
20
82.648182590747439
42
-0.099084085665574251
10
-181.57427458231484
20
85.088761533225451
10
-183.62362118808963
20
85.450116632646811
42
-0.48111094744793853
10
-184.33461248936106
20
86.753378451897447
0
CIRCLE
5
111
100
AcDbEntity
8
0
100
AcDbCircle
10
-304.81555639669648
20
110.66647563282189
30
2.5243548967072378e-28
40
1.0999999999999943
210
-5.8224087193634166e-61
220
-3.944304526105059e-31
230
1
0
CIRCLE
5
112
100
AcDbEntity
8
0
100
AcDbCircle
10
-84.027657266652312
20
32.509895402471237
30
2.5243548967072378e-28
40
1.0999999999999943
210
-5.8224087193634055e-61
220
-3.944304526105059e-31
230
1
0
CIRCLE
5
113
100
AcDbEntity
8
0
100
AcDbCircle
10
-212.91055377639509
20
56.89840707878318
30
0
40
0.54999999999999716
210
-5.8224087193634166e-61
220
-3.944304526105059e-31
230
1
0
CIRCLE
5
114
100
AcDbEntity
8
0
100
AcDbCircle
10
-292.53104928132308
20
40.791657410279065
30
-2.5243548967072378e-28
40
1.0999999999999943
210
-5.8224087193634166e-61
220
-3.944304526105059e-31
230
1
0
CIRCLE
5
115
100
AcDbEntity
8
0
100
AcDbCircle
10
-214.01428026596881
20
126.67718948200312
30
0
40
1.0999999999999943
210
-5.8224087193634166e-61
220
-3.944304526105059e-31
230
1
0
CIRCLE
5
116
100
AcDbEntity
8
0
100
AcDbCircle
10
-183.17475422360445
20
56.898407078783123
30
0
40
0.54999999999999716
210
-5.8224087193634055e-61
220
-3.944304526105059e-31
230
1
0
LWPOLYLINE
5
117
100
AcDbEntity
8
0
100
AcDbPolyline
90
18
70
1
43
0.0
10
-91.200664933371357
20
90.682292333109842
42
0.66169237641859791
10
-96.433061977105751
20
100.92860866653318
10
-134.23664587917438
20
98.261091124262506
10
-151.53283387023174
20
105.97496343704277
10
-170.96021510636155
20
109.40053491348183
42
0.3518142284434419
10
-177.8210310858486
20
105.63419489419134
42
0.33546097338784087
10
-178.13383568657633
20
104.65788372198477
42
0.13232186007598484
10
-178.01954135728323
20
101.40877101358952
42
0.47955708419718307
10
-177.67836710384105
20
100.53744456602205
42
0.24157297120843949
10
-173.1308173271982
20
97.090438000829238
10
-155.21887819573888
20
93.932079855145204
10
-147.62959136317025
20
90.547357764834459
10
-147.72285159528221
20
90.018452705964549
10
-146.32097656306851
20
89.771264314203734
42
1.0734259878536518
10
-144.52593959381571
20
89.163169904219529
10
-136.47405101719468
20
85.572133521584121
10
-95.553217700438296
20
88.459612153228051
42
0.1801411560286473
10
-91.582719473706149
20
90.265714289002091
42
0.2502710054642886
0
CIRCLE
5
118
100
AcDbEntity
8
0
100
AcDbCircle
10
-176.77350382902506
20
55.769693923948068
30
0
40
0.54999999999999716
210
-5.8224087193634055e-61
220
-3.944304526105059e-31
230
1
0
LWPOLYLINE
5
119
100
AcDbEntity
8
0
100
AcDbPolyline
90
18
70
1
43
0.0
10
-251.55936840618415
20
89.163169904219117
42
1.0734259878536874
10
-249.76433143693134
20
89.771264314203336
10
-248.3624564047177
20
90.018452705964194
10
-248.45571663682966
20
90.547357764834089
10
-240.86642980426106
20
93.932079855144906
10
-222.9544906728018
20
97.090438000829124
42
0.24157297120844054
10
-218.40694089615894
20
100.53744456602197
42
0.47955708419721588
10
-218.06576664271682
20
101.4087710135895
42
0.13232186007705124
10
-217.95147231342966
20
104.65788372201027
42
0.33546097337333064
10
-218.26427691414142
20
105.63419489416695
42
0.35181422844462679
10
-225.12509289363859
20
109.40053491348169
10
-244.55247412976831
20
105.97496343704245
10
-261.84866212082557
20
98.261091124261966
10
-299.65224602289419
20
100.92860866653223
42
0.66169237641859802
10
-304.88464306662848
20
90.682292333108805
42
0.25027100546424097
10
-304.50258852629378
20
90.265714289001124
42
0.1801411560286518
10
-300.53209029956156
20
88.459612153227056
10
-259.61125698280517
20
85.572133521583595
0
LWPOLYLINE
5
120
100
AcDbEntity
8
0
100
AcDbPolyline
90
8
70
1
43
0.0
10
-184.41702655410083
20
101.32459502514705
10
-183.166759674899
20
108.41521084683494
10
-181.76488464268539
20
108.16802245507415
42
-1.2520253861514268
10
-179.94003826795532
20
107.84625280356124
10
-178.53816323574162
20
107.59906441180043
10
-179.78843011494342
20
100.50844859011251
10
-181.19030514715706
20
100.75563698187332
42
-1.2520253861513686
10
-183.01515152188713
20
101.07740663338625
0
CIRCLE
5
121
100
AcDbEntity
8
0
100
AcDbCircle
10
-229.71234012661648
20
51.868290727532411
30
0
40
1.0999999999999943
210
-5.8224087193634166e-61
220
-3.944304526105059e-31
230
1
0
CIRCLE
5
122
100
AcDbEntity
8
0
100
AcDbCircle
10
-183.95617102310564
20
52.466772190228177
30
0
40
0.54999999999999716
210
-5.8224087193634055e-61
220
-3.944304526105059e-31
230
1
0
CIRCLE
5
123
100
AcDbEntity
8
0
100
AcDbCircle
10
-218.53038737147324
20
51.33805903539313
30
0
40
0.54999999999999716
210
-5.8224087193634166e-61
220
-3.944304526105059e-31
230
1
0
CIRCLE
5
124
100
AcDbEntity
8
0
100
AcDbCircle
10
-182.07102773403147
20
126.67718948200319
30
0
40
1.0999999999999943
210
-5.8224087193634055e-61
220
-3.944304526105059e-31
230
1
0
LWPOLYLINE
5
125
100
AcDbEntity
8
0
100
AcDbPolyline
90
8
70
1
43
0.0
10
-219.6433407139811
20
119.33657902614212
10
-220.89360759318308
20
126.42719484782998
10
-219.49173256096947
20
126.67438323959081
42
-1.252025386151423
10
-217.66688618623942
20
126.99615289110376
10
-216.26501115402573
20
127.24334128286461
10
-215.01474427482376
20
120.15272546117671
10
-216.41661930703745
20
119.9055370694159
42
-1.2520253861513786
10
-218.24146568176747
20
119.58376741790292
0
LWPOLYLINE
5
126
100
AcDbEntity
8
0
100
AcDbPolyline
90
8
70
1
43
0.0
10
-216.29687788505657
20
100.50844859011249
10
-217.54714476425852
20
107.59906441180036
10
-216.14526973204494
20
107.84625280356119
42
-1.252025386151423
10
-214.32042335731489
20
108.16802245507415
10
-212.9185483251012
20
108.415210846835
10
-211.6682814458992
20
101.32459502514709
10
-213.07015647811289
20
101.07740663338629
42
-1.2520253861513786
10
-214.89500285284294
20
100.75563698187331
0
CIRCLE
5
127
100
AcDbEntity
8
0
100
AcDbCircle
10
-91.269751603303575
20
110.66647563282294
30
0
40
1.0999999999999943
210
-5.8224087193634055e-61
220
-3.944304526105059e-31
230
1
0
CIRCLE
5
128
100
AcDbEntity
8
0
100
AcDbCircle
10
-103.55425871867621
20
40.791657410279882
30
0
40
1.0999999999999943
210
-5.8224087193634055e-61
220
-3.944304526105059e-31
230
1
0
LWPOLYLINE
5
129
100
AcDbEntity
8
0
100
AcDbPolyline
90
12
70
1
43
0.0
10
-271.58098313525221
20
110.50530422047261
42
0.24157296481014046
10
-266.12873863773081
20
108.82153118466417
10
-226.26248862764953
20
115.85102566568446
42
0.2415729776067391
10
-221.71493870037011
20
119.29803225475369
42
0.47955710632058457
10
-221.37376443850974
20
120.16935872804844
42
0.1323218578790113
10
-221.25947010941513
20
123.41847138429694
42
0.33546099572772758
10
-221.5722747263143
20
124.39478260849236
42
0.35181422040226495
10
-228.43309054439248
20
128.16112263195697
10
-268.29934055447376
20
121.13162815093668
42
0.35181423648618948
10
-273.45823470286069
20
115.24588891148595
42
0.33546095102863704
10
-273.41825679345163
20
114.22147108745278
42
0.13232186227437978
10
-272.19959324338458
20
111.20739476518952
42
0.47955706207374643
0
LWPOLYLINE
5
130
100
AcDbEntity
8
0
100
AcDbPolyline
90
52
70
1
43
0.0
10
-140.852642042165
20
60.739916814645355
10
-103.04905537754543
20
63.407431970962818
42
-0.66169234554559275
10
-97.816658685306351
20
53.161115693701781
42
-0.25027107742266552
10
-98.198713319843336
20
52.744537541465313
42
-0.18014117227066309
10
-102.16921194793038
20
50.938435397887538
10
-143.09004767400123
20
48.050959389939564
10
-151.14193303354546
20
51.641994457034521
42
-1.0734267340975743
10
-152.93697033621126
20
52.250087592334495
10
-154.33884536842493
20
52.497275984095296
10
-154.24558489611732
20
53.026182405182468
10
-161.83487346408049
20
56.410905381839612
10
-187.92265399999991
20
61.010883545108506
10
-187.92265399999991
20
32.50989540247123
42
0.41421356237309392
10
-180.92265399999997
20
25.509895402471226
10
-84.027657266652312
20
25.509895402471216
42
0.41421356237309453
10
-77.027657266652284
20
32.509895402471223
10
-77.027657266652284
20
113.86021311817501
42
0.41421356237309542
10
-104.0276572666523
20
140.86021311817501
10
-292.05765073334726
20
140.86021311817501
42
0.41421356237309404
10
-319.05765073334726
20
113.86021311817501
10
-319.0576507333472
20
32.509895402471223
42
0.41421356237309481
10
-312.0576507333472
20
25.509895402471233
10
-215.16265399999997
20
25.509895402471233
42
0.4142135623730952
10
-208.16265399999997
20
32.50989540247123
10
-208.16265399999997
20
61.010883545108605
10
-234.25043453591906
20
56.41090538183942
10
-241.83972310388219
20
53.026182405182183
10
-241.74646263157459
20
52.497275984095076
10
-243.14833766378828
20
52.250087592334239
42
-1.0734267340975852
10
-244.943374966454
20
51.64199445703418
10
-252.99526032599823
20
48.050959389939166
10
-293.91609605206901
20
50.938435397886657
42
-0.18014117227067067
10
-297.88659468015618
20
52.744537541464489
42
-0.25027107742251337
10
-298.26864931469305
20
53.161115693700729
42
-0.66169234554559886
10
-293.03625262245413
20
63.407431970961959
10
-255.23266595783454
20
60.739916814644943
10
-237.93647863442575
20
68.453789085787363
10
-212.88380251148081
20
72.871250469224393
10
-213.1259488696189
20
74.24453070781955
10
-211.72407383740529
20
74.491719099580365
42
-1.2520253861514348
10
-209.89922746267524
20
74.813488751093331
10
-208.16265399999997
20
75.119693506545332
10
-208.16265399999997
20
82.000001266598701
42
-0.41421356237309337
10
-205.16265399999992
20
85.000001266598687
10
-190.92265399999997
20
85.000001266598687
42
-0.41421356237310375
10
-187.92265399999991
20
82.000001266598701
10
-187.92265399999991
20
75.11969350654519
10
-186.18608053732456
20
74.813488751093246
42
-1.2520253861514554
10
-184.36123416259463
20
74.491719099580337
10
-182.9593591303809
20
74.244530707819521
10
-183.20150548851896
20
72.871250469224364
10
-158.14882936557385
20
68.453789085787591
0
ENDSEC
0
SECTION
2
OBJECTS
0
DICTIONARY
5
C
100
AcDbDictionary
3
ACAD_GROUP
350
D
3
ACAD_MLINESTYLE
350
17
0
DICTIONARY
5
D
100
AcDbDictionary
0
DICTIONARY
5
1A
330
C
100
AcDbDictionary
0
DICTIONARY
5
17
100
AcDbDictionary
0
ENDSEC
0
EOF
